<?xml version="1.0" standalone="no"?>
 <!DOCTYPE svg PUBLIC "-//W3C//DTD SVG 1.1//EN" 
 "http://www.w3.org/Graphics/SVG/1.1/DTD/svg11.dtd"> 
<svg xmlns="http://www.w3.org/2000/svg" version="1.1" 
    width="7.79018cm" height="8.5217cm" viewBox="0 0 30670 33550 ">
<title>SVG Picture created as KiCad-ESP32_LiPo_Wearable_Shield-F_Cu.svg date 2020/10/13 18:18:18 </title>
  <desc>Picture generated by PCBNEW </desc>
<g style="fill:#000000; fill-opacity:1;stroke:#000000; stroke-opacity:1;
stroke-linecap:round; stroke-linejoin:round; "
 transform="translate(0 0) scale(1 1)">
</g>
<g style="fill:#000000; fill-opacity:0.0; 
stroke:#000000; stroke-width:-0.000393701; stroke-opacity:1; 
stroke-linecap:round; stroke-linejoin:round;">
<g >
</g>
<g style="fill:#000000; fill-opacity:0.0; 
stroke:#000000; stroke-width:2362.2; stroke-opacity:1; 
stroke-linecap:round; stroke-linejoin:round;">
<path d="M22251 2529
L22251 2529
" />
<path d="M25007 2529
L25007 2529
" />
<path d="M27763 2529
L27763 2529
" />
<path d="M19496 2529
L19496 2529
" />
<path d="M16740 2529
L16740 2529
" />
<path d="M13984 2529
L13984 2529
" />
<path d="M11228 2529
L11228 2529
" />
<path d="M8472 2529
L8472 2529
" />
<path d="M5716 2529
L5716 2529
" />
<path d="M2960 2529
L2960 2529
" />
</g>
<g >
</g>
<g style="fill:#000000; fill-opacity:0.0; 
stroke:#000000; stroke-width:2362.2; stroke-opacity:1; 
stroke-linecap:round; stroke-linejoin:round;">
</g>
<g style="fill:#000000; fill-opacity:0.0; 
stroke:#000000; stroke-width:0; stroke-opacity:1; 
stroke-linecap:round; stroke-linejoin:round;">
</g>
<g style="fill:#000000; fill-opacity:1.0; 
stroke:#000000; stroke-width:0; stroke-opacity:1; 
stroke-linecap:round; stroke-linejoin:round;">
<path style="fill:#000000; fill-opacity:1.0; 
stroke:#000000; stroke-width:0; stroke-opacity:1; 
stroke-linecap:round; stroke-linejoin:round;fill-rule:evenodd;"
d="M 25685,24832.7
25685,25226.4
24937,25226.4
24937,24832.7
Z" /> 
<path style="fill:#000000; fill-opacity:1.0; 
stroke:#000000; stroke-width:0; stroke-opacity:1; 
stroke-linecap:round; stroke-linejoin:round;fill-rule:evenodd;"
d="M 25685,26832.7
25685,27226.4
24937,27226.4
24937,26832.7
Z" /> 
<path style="fill:#000000; fill-opacity:1.0; 
stroke:#000000; stroke-width:0; stroke-opacity:1; 
stroke-linecap:round; stroke-linejoin:round;fill-rule:evenodd;"
d="M 26984.3,25832.7
26984.3,26226.4
26236.2,26226.4
26236.2,25832.7
Z" /> 
<path style="fill:#000000; fill-opacity:1.0; 
stroke:#000000; stroke-width:0; stroke-opacity:1; 
stroke-linecap:round; stroke-linejoin:round;fill-rule:evenodd;"
d="M 26984.3,27832.7
26984.3,28226.4
26236.2,28226.4
26236.2,27832.7
Z" /> 
</g>
<g >
</g>
<g style="fill:#000000; fill-opacity:1.0; 
stroke:#000000; stroke-width:0; stroke-opacity:1; 
stroke-linecap:round; stroke-linejoin:round;">
<path style="fill:#000000; fill-opacity:1.0; 
stroke:#000000; stroke-width:0; stroke-opacity:1; 
stroke-linecap:round; stroke-linejoin:round;fill-rule:evenodd;"
d="M 20118.1,7476.38
20118.1,7082.68
21106.3,7082.68
21106.3,7476.38
Z" /> 
<path style="fill:#000000; fill-opacity:1.0; 
stroke:#000000; stroke-width:0; stroke-opacity:1; 
stroke-linecap:round; stroke-linejoin:round;fill-rule:evenodd;"
d="M 20118.1,5476.38
20118.1,5082.68
21106.3,5082.68
21106.3,5476.38
Z" /> 
<path style="fill:#000000; fill-opacity:1.0; 
stroke:#000000; stroke-width:0; stroke-opacity:1; 
stroke-linecap:round; stroke-linejoin:round;fill-rule:evenodd;"
d="M 18815,8476.38
18815,8082.68
19803.2,8082.68
19803.2,8476.38
Z" /> 
<path style="fill:#000000; fill-opacity:1.0; 
stroke:#000000; stroke-width:0; stroke-opacity:1; 
stroke-linecap:round; stroke-linejoin:round;fill-rule:evenodd;"
d="M 18815,6476.38
18815,6082.68
19803.2,6082.68
19803.2,6476.38
Z" /> 
</g>
<g >
</g>
<g style="fill:#000000; fill-opacity:1.0; 
stroke:#000000; stroke-width:0; stroke-opacity:1; 
stroke-linecap:round; stroke-linejoin:round;">
<path style="fill:#000000; fill-opacity:1.0; 
stroke:#000000; stroke-width:0; stroke-opacity:1; 
stroke-linecap:round; stroke-linejoin:round;fill-rule:evenodd;"
d="M 7519.69,7476.38
7519.69,7082.68
8507.87,7082.68
8507.87,7476.38
Z" /> 
<path style="fill:#000000; fill-opacity:1.0; 
stroke:#000000; stroke-width:0; stroke-opacity:1; 
stroke-linecap:round; stroke-linejoin:round;fill-rule:evenodd;"
d="M 7519.69,5476.38
7519.69,5082.68
8507.87,5082.68
8507.87,5476.38
Z" /> 
<path style="fill:#000000; fill-opacity:1.0; 
stroke:#000000; stroke-width:0; stroke-opacity:1; 
stroke-linecap:round; stroke-linejoin:round;fill-rule:evenodd;"
d="M 6216.54,8476.38
6216.54,8082.68
7204.72,8082.68
7204.72,8476.38
Z" /> 
<path style="fill:#000000; fill-opacity:1.0; 
stroke:#000000; stroke-width:0; stroke-opacity:1; 
stroke-linecap:round; stroke-linejoin:round;fill-rule:evenodd;"
d="M 6216.54,6476.38
6216.54,6082.68
7204.72,6082.68
7204.72,6476.38
Z" /> 
</g>
<g >
</g>
<g style="fill:#000000; fill-opacity:1.0; 
stroke:#000000; stroke-width:0; stroke-opacity:1; 
stroke-linecap:round; stroke-linejoin:round;">
<path style="fill:#000000; fill-opacity:1.0; 
stroke:#000000; stroke-width:0; stroke-opacity:1; 
stroke-linecap:round; stroke-linejoin:round;fill-rule:evenodd;"
d="M 19618.1,14226.4
19618.1,13832.7
20606.3,13832.7
20606.3,14226.4
Z" /> 
<path style="fill:#000000; fill-opacity:1.0; 
stroke:#000000; stroke-width:0; stroke-opacity:1; 
stroke-linecap:round; stroke-linejoin:round;fill-rule:evenodd;"
d="M 19618.1,12226.4
19618.1,11832.7
20606.3,11832.7
20606.3,12226.4
Z" /> 
<path style="fill:#000000; fill-opacity:1.0; 
stroke:#000000; stroke-width:0; stroke-opacity:1; 
stroke-linecap:round; stroke-linejoin:round;fill-rule:evenodd;"
d="M 18315,15226.4
18315,14832.7
19303.2,14832.7
19303.2,15226.4
Z" /> 
<path style="fill:#000000; fill-opacity:1.0; 
stroke:#000000; stroke-width:0; stroke-opacity:1; 
stroke-linecap:round; stroke-linejoin:round;fill-rule:evenodd;"
d="M 18315,13226.4
18315,12832.7
19303.2,12832.7
19303.2,13226.4
Z" /> 
<path style="fill:#000000; fill-opacity:1.0; 
stroke:#000000; stroke-width:0; stroke-opacity:1; 
stroke-linecap:round; stroke-linejoin:round;fill-rule:evenodd;"
d="M 18315,11226.4
18315,10832.7
19303.2,10832.7
19303.2,11226.4
Z" /> 
</g>
<g >
</g>
<g style="fill:#000000; fill-opacity:1.0; 
stroke:#000000; stroke-width:0; stroke-opacity:1; 
stroke-linecap:round; stroke-linejoin:round;">
<path style="fill:#000000; fill-opacity:1.0; 
stroke:#000000; stroke-width:0; stroke-opacity:1; 
stroke-linecap:round; stroke-linejoin:round;fill-rule:evenodd;"
d="M 22303.2,11832.7
22303.2,12226.4
21315,12226.4
21315,11832.7
Z" /> 
<path style="fill:#000000; fill-opacity:1.0; 
stroke:#000000; stroke-width:0; stroke-opacity:1; 
stroke-linecap:round; stroke-linejoin:round;fill-rule:evenodd;"
d="M 22303.2,13832.7
22303.2,14226.4
21315,14226.4
21315,13832.7
Z" /> 
<path style="fill:#000000; fill-opacity:1.0; 
stroke:#000000; stroke-width:0; stroke-opacity:1; 
stroke-linecap:round; stroke-linejoin:round;fill-rule:evenodd;"
d="M 23606.3,12832.7
23606.3,13226.4
22618.1,13226.4
22618.1,12832.7
Z" /> 
</g>
<g >
</g>
<g style="fill:#000000; fill-opacity:1.0; 
stroke:#000000; stroke-width:0; stroke-opacity:1; 
stroke-linecap:round; stroke-linejoin:round;">
<path style="fill:#000000; fill-opacity:1.0; 
stroke:#000000; stroke-width:0; stroke-opacity:1; 
stroke-linecap:round; stroke-linejoin:round;fill-rule:evenodd;"
d="M 25966.5,22726.4
25966.5,22332.7
26954.7,22332.7
26954.7,22726.4
Z" /> 
<path style="fill:#000000; fill-opacity:1.0; 
stroke:#000000; stroke-width:0; stroke-opacity:1; 
stroke-linecap:round; stroke-linejoin:round;fill-rule:evenodd;"
d="M 25966.5,20726.4
25966.5,20332.7
26954.7,20332.7
26954.7,20726.4
Z" /> 
<path style="fill:#000000; fill-opacity:1.0; 
stroke:#000000; stroke-width:0; stroke-opacity:1; 
stroke-linecap:round; stroke-linejoin:round;fill-rule:evenodd;"
d="M 24663.4,21726.4
24663.4,21332.7
25651.6,21332.7
25651.6,21726.4
Z" /> 
</g>
<g >
</g>
<g style="fill:#000000; fill-opacity:1.0; 
stroke:#000000; stroke-width:0; stroke-opacity:1; 
stroke-linecap:round; stroke-linejoin:round;">
<path style="fill:#000000; fill-opacity:1.0; 
stroke:#000000; stroke-width:0; stroke-opacity:1; 
stroke-linecap:round; stroke-linejoin:round;fill-rule:evenodd;"
d="M 5013.78,17937
5407.48,17937
5407.48,18925.2
5013.78,18925.2
Z" /> 
<path style="fill:#000000; fill-opacity:1.0; 
stroke:#000000; stroke-width:0; stroke-opacity:1; 
stroke-linecap:round; stroke-linejoin:round;fill-rule:evenodd;"
d="M 7013.78,17937
7407.48,17937
7407.48,18925.2
7013.78,18925.2
Z" /> 
<path style="fill:#000000; fill-opacity:1.0; 
stroke:#000000; stroke-width:0; stroke-opacity:1; 
stroke-linecap:round; stroke-linejoin:round;fill-rule:evenodd;"
d="M 9013.78,17937
9407.48,17937
9407.48,18925.2
9013.78,18925.2
Z" /> 
<path style="fill:#000000; fill-opacity:1.0; 
stroke:#000000; stroke-width:0; stroke-opacity:1; 
stroke-linecap:round; stroke-linejoin:round;fill-rule:evenodd;"
d="M 11013.8,17937
11407.5,17937
11407.5,18925.2
11013.8,18925.2
Z" /> 
<path style="fill:#000000; fill-opacity:1.0; 
stroke:#000000; stroke-width:0; stroke-opacity:1; 
stroke-linecap:round; stroke-linejoin:round;fill-rule:evenodd;"
d="M 13013.8,17937
13407.5,17937
13407.5,18925.2
13013.8,18925.2
Z" /> 
<path style="fill:#000000; fill-opacity:1.0; 
stroke:#000000; stroke-width:0; stroke-opacity:1; 
stroke-linecap:round; stroke-linejoin:round;fill-rule:evenodd;"
d="M 15013.8,17937
15407.5,17937
15407.5,18925.2
15013.8,18925.2
Z" /> 
<path style="fill:#000000; fill-opacity:1.0; 
stroke:#000000; stroke-width:0; stroke-opacity:1; 
stroke-linecap:round; stroke-linejoin:round;fill-rule:evenodd;"
d="M 17013.8,17937
17407.5,17937
17407.5,18925.2
17013.8,18925.2
Z" /> 
<path style="fill:#000000; fill-opacity:1.0; 
stroke:#000000; stroke-width:0; stroke-opacity:1; 
stroke-linecap:round; stroke-linejoin:round;fill-rule:evenodd;"
d="M 19013.8,17937
19407.5,17937
19407.5,18925.2
19013.8,18925.2
Z" /> 
<path style="fill:#000000; fill-opacity:1.0; 
stroke:#000000; stroke-width:0; stroke-opacity:1; 
stroke-linecap:round; stroke-linejoin:round;fill-rule:evenodd;"
d="M 21013.8,17937
21407.5,17937
21407.5,18925.2
21013.8,18925.2
Z" /> 
<path style="fill:#000000; fill-opacity:1.0; 
stroke:#000000; stroke-width:0; stroke-opacity:1; 
stroke-linecap:round; stroke-linejoin:round;fill-rule:evenodd;"
d="M 23013.8,17937
23407.5,17937
23407.5,18925.2
23013.8,18925.2
Z" /> 
<path style="fill:#000000; fill-opacity:1.0; 
stroke:#000000; stroke-width:0; stroke-opacity:1; 
stroke-linecap:round; stroke-linejoin:round;fill-rule:evenodd;"
d="M 6013.78,16633.9
6407.48,16633.9
6407.48,17622
6013.78,17622
Z" /> 
<path style="fill:#000000; fill-opacity:1.0; 
stroke:#000000; stroke-width:0; stroke-opacity:1; 
stroke-linecap:round; stroke-linejoin:round;fill-rule:evenodd;"
d="M 8013.78,16633.9
8407.48,16633.9
8407.48,17622
8013.78,17622
Z" /> 
<path style="fill:#000000; fill-opacity:1.0; 
stroke:#000000; stroke-width:0; stroke-opacity:1; 
stroke-linecap:round; stroke-linejoin:round;fill-rule:evenodd;"
d="M 10013.8,16633.9
10407.5,16633.9
10407.5,17622
10013.8,17622
Z" /> 
<path style="fill:#000000; fill-opacity:1.0; 
stroke:#000000; stroke-width:0; stroke-opacity:1; 
stroke-linecap:round; stroke-linejoin:round;fill-rule:evenodd;"
d="M 12013.8,16633.9
12407.5,16633.9
12407.5,17622
12013.8,17622
Z" /> 
<path style="fill:#000000; fill-opacity:1.0; 
stroke:#000000; stroke-width:0; stroke-opacity:1; 
stroke-linecap:round; stroke-linejoin:round;fill-rule:evenodd;"
d="M 14013.8,16633.9
14407.5,16633.9
14407.5,17622
14013.8,17622
Z" /> 
<path style="fill:#000000; fill-opacity:1.0; 
stroke:#000000; stroke-width:0; stroke-opacity:1; 
stroke-linecap:round; stroke-linejoin:round;fill-rule:evenodd;"
d="M 16013.8,16633.9
16407.5,16633.9
16407.5,17622
16013.8,17622
Z" /> 
<path style="fill:#000000; fill-opacity:1.0; 
stroke:#000000; stroke-width:0; stroke-opacity:1; 
stroke-linecap:round; stroke-linejoin:round;fill-rule:evenodd;"
d="M 18013.8,16633.9
18407.5,16633.9
18407.5,17622
18013.8,17622
Z" /> 
<path style="fill:#000000; fill-opacity:1.0; 
stroke:#000000; stroke-width:0; stroke-opacity:1; 
stroke-linecap:round; stroke-linejoin:round;fill-rule:evenodd;"
d="M 20013.8,16633.9
20407.5,16633.9
20407.5,17622
20013.8,17622
Z" /> 
<path style="fill:#000000; fill-opacity:1.0; 
stroke:#000000; stroke-width:0; stroke-opacity:1; 
stroke-linecap:round; stroke-linejoin:round;fill-rule:evenodd;"
d="M 22013.8,16633.9
22407.5,16633.9
22407.5,17622
22013.8,17622
Z" /> 
</g>
<g >
</g>
<g style="fill:#000000; fill-opacity:1.0; 
stroke:#000000; stroke-width:0; stroke-opacity:1; 
stroke-linecap:round; stroke-linejoin:round;">
</g>
<g style="fill:#000000; fill-opacity:1.0; 
stroke:#000000; stroke-width:2362.2; stroke-opacity:1; 
stroke-linecap:round; stroke-linejoin:round;">
</g>
<g style="fill:#000000; fill-opacity:0.0; 
stroke:#000000; stroke-width:2362.2; stroke-opacity:1; 
stroke-linecap:round; stroke-linejoin:round;">
<path d="M22251 30529
L22251 30529
" />
<path d="M25007 30529
L25007 30529
" />
<path d="M27763 30529
L27763 30529
" />
<path d="M19496 30529
L19496 30529
" />
<path d="M16740 30529
L16740 30529
" />
<path d="M13984 30529
L13984 30529
" />
<path d="M11228 30529
L11228 30529
" />
<path d="M8472 30529
L8472 30529
" />
<path d="M5716 30529
L5716 30529
" />
<path d="M2960 30529
L2960 30529
" />
</g>
<g >
</g>
<g style="fill:#000000; fill-opacity:0.0; 
stroke:#000000; stroke-width:2362.2; stroke-opacity:1; 
stroke-linecap:round; stroke-linejoin:round;">
</g>
<g style="fill:#000000; fill-opacity:0.0; 
stroke:#000000; stroke-width:0; stroke-opacity:1; 
stroke-linecap:round; stroke-linejoin:round;">
</g>
<g style="fill:#000000; fill-opacity:1.0; 
stroke:#000000; stroke-width:0; stroke-opacity:1; 
stroke-linecap:round; stroke-linejoin:round;">
<path style="fill:#000000; fill-opacity:1.0; 
stroke:#000000; stroke-width:0; stroke-opacity:1; 
stroke-linecap:round; stroke-linejoin:round;fill-rule:evenodd;"
d="M 5013.78,26838.6
5407.48,26838.6
5407.48,27826.8
5013.78,27826.8
Z" /> 
<path style="fill:#000000; fill-opacity:1.0; 
stroke:#000000; stroke-width:0; stroke-opacity:1; 
stroke-linecap:round; stroke-linejoin:round;fill-rule:evenodd;"
d="M 7013.78,26838.6
7407.48,26838.6
7407.48,27826.8
7013.78,27826.8
Z" /> 
<path style="fill:#000000; fill-opacity:1.0; 
stroke:#000000; stroke-width:0; stroke-opacity:1; 
stroke-linecap:round; stroke-linejoin:round;fill-rule:evenodd;"
d="M 9013.78,26838.6
9407.48,26838.6
9407.48,27826.8
9013.78,27826.8
Z" /> 
<path style="fill:#000000; fill-opacity:1.0; 
stroke:#000000; stroke-width:0; stroke-opacity:1; 
stroke-linecap:round; stroke-linejoin:round;fill-rule:evenodd;"
d="M 11013.8,26838.6
11407.5,26838.6
11407.5,27826.8
11013.8,27826.8
Z" /> 
<path style="fill:#000000; fill-opacity:1.0; 
stroke:#000000; stroke-width:0; stroke-opacity:1; 
stroke-linecap:round; stroke-linejoin:round;fill-rule:evenodd;"
d="M 13013.8,26838.6
13407.5,26838.6
13407.5,27826.8
13013.8,27826.8
Z" /> 
<path style="fill:#000000; fill-opacity:1.0; 
stroke:#000000; stroke-width:0; stroke-opacity:1; 
stroke-linecap:round; stroke-linejoin:round;fill-rule:evenodd;"
d="M 15013.8,26838.6
15407.5,26838.6
15407.5,27826.8
15013.8,27826.8
Z" /> 
<path style="fill:#000000; fill-opacity:1.0; 
stroke:#000000; stroke-width:0; stroke-opacity:1; 
stroke-linecap:round; stroke-linejoin:round;fill-rule:evenodd;"
d="M 17013.8,26838.6
17407.5,26838.6
17407.5,27826.8
17013.8,27826.8
Z" /> 
<path style="fill:#000000; fill-opacity:1.0; 
stroke:#000000; stroke-width:0; stroke-opacity:1; 
stroke-linecap:round; stroke-linejoin:round;fill-rule:evenodd;"
d="M 19013.8,26838.6
19407.5,26838.6
19407.5,27826.8
19013.8,27826.8
Z" /> 
<path style="fill:#000000; fill-opacity:1.0; 
stroke:#000000; stroke-width:0; stroke-opacity:1; 
stroke-linecap:round; stroke-linejoin:round;fill-rule:evenodd;"
d="M 21013.8,26838.6
21407.5,26838.6
21407.5,27826.8
21013.8,27826.8
Z" /> 
<path style="fill:#000000; fill-opacity:1.0; 
stroke:#000000; stroke-width:0; stroke-opacity:1; 
stroke-linecap:round; stroke-linejoin:round;fill-rule:evenodd;"
d="M 23013.8,26838.6
23407.5,26838.6
23407.5,27826.8
23013.8,27826.8
Z" /> 
<path style="fill:#000000; fill-opacity:1.0; 
stroke:#000000; stroke-width:0; stroke-opacity:1; 
stroke-linecap:round; stroke-linejoin:round;fill-rule:evenodd;"
d="M 6013.78,25535.4
6407.48,25535.4
6407.48,26523.6
6013.78,26523.6
Z" /> 
<path style="fill:#000000; fill-opacity:1.0; 
stroke:#000000; stroke-width:0; stroke-opacity:1; 
stroke-linecap:round; stroke-linejoin:round;fill-rule:evenodd;"
d="M 8013.78,25535.4
8407.48,25535.4
8407.48,26523.6
8013.78,26523.6
Z" /> 
<path style="fill:#000000; fill-opacity:1.0; 
stroke:#000000; stroke-width:0; stroke-opacity:1; 
stroke-linecap:round; stroke-linejoin:round;fill-rule:evenodd;"
d="M 10013.8,25535.4
10407.5,25535.4
10407.5,26523.6
10013.8,26523.6
Z" /> 
<path style="fill:#000000; fill-opacity:1.0; 
stroke:#000000; stroke-width:0; stroke-opacity:1; 
stroke-linecap:round; stroke-linejoin:round;fill-rule:evenodd;"
d="M 12013.8,25535.4
12407.5,25535.4
12407.5,26523.6
12013.8,26523.6
Z" /> 
<path style="fill:#000000; fill-opacity:1.0; 
stroke:#000000; stroke-width:0; stroke-opacity:1; 
stroke-linecap:round; stroke-linejoin:round;fill-rule:evenodd;"
d="M 14013.8,25535.4
14407.5,25535.4
14407.5,26523.6
14013.8,26523.6
Z" /> 
<path style="fill:#000000; fill-opacity:1.0; 
stroke:#000000; stroke-width:0; stroke-opacity:1; 
stroke-linecap:round; stroke-linejoin:round;fill-rule:evenodd;"
d="M 16013.8,25535.4
16407.5,25535.4
16407.5,26523.6
16013.8,26523.6
Z" /> 
<path style="fill:#000000; fill-opacity:1.0; 
stroke:#000000; stroke-width:0; stroke-opacity:1; 
stroke-linecap:round; stroke-linejoin:round;fill-rule:evenodd;"
d="M 18013.8,25535.4
18407.5,25535.4
18407.5,26523.6
18013.8,26523.6
Z" /> 
<path style="fill:#000000; fill-opacity:1.0; 
stroke:#000000; stroke-width:0; stroke-opacity:1; 
stroke-linecap:round; stroke-linejoin:round;fill-rule:evenodd;"
d="M 20013.8,25535.4
20407.5,25535.4
20407.5,26523.6
20013.8,26523.6
Z" /> 
<path style="fill:#000000; fill-opacity:1.0; 
stroke:#000000; stroke-width:0; stroke-opacity:1; 
stroke-linecap:round; stroke-linejoin:round;fill-rule:evenodd;"
d="M 22013.8,25535.4
22407.5,25535.4
22407.5,26523.6
22013.8,26523.6
Z" /> 
</g>
<g >
</g>
<g style="fill:#000000; fill-opacity:1.0; 
stroke:#000000; stroke-width:0; stroke-opacity:1; 
stroke-linecap:round; stroke-linejoin:round;">
</g>
<g style="fill:#000000; fill-opacity:1.0; 
stroke:#000000; stroke-width:2362.2; stroke-opacity:1; 
stroke-linecap:round; stroke-linejoin:round;">
</g>
<g style="fill:#000000; fill-opacity:0.0; 
stroke:#000000; stroke-width:2362.2; stroke-opacity:1; 
stroke-linecap:round; stroke-linejoin:round;">
<path d="M2960 13797
L2960 13797
" />
<path d="M2960 11041
L2960 11041
" />
<path d="M2960 8285
L2960 8285
" />
<path d="M2960 5529
L2960 5529
" />
</g>
<g >
</g>
<g style="fill:#000000; fill-opacity:0.0; 
stroke:#000000; stroke-width:2362.2; stroke-opacity:1; 
stroke-linecap:round; stroke-linejoin:round;">
<path d="M27460 17797
L27460 17797
" />
<path d="M27460 15041
L27460 15041
" />
<path d="M27460 12285
L27460 12285
" />
<path d="M27460 9529
L27460 9529
" />
</g>
<g >
</g>
<g style="fill:#000000; fill-opacity:0.0; 
stroke:#000000; stroke-width:2362.2; stroke-opacity:1; 
stroke-linecap:round; stroke-linejoin:round;">
</g>
<g style="fill:#000000; fill-opacity:0.0; 
stroke:#000000; stroke-width:0; stroke-opacity:1; 
stroke-linecap:round; stroke-linejoin:round;">
</g>
<g style="fill:#000000; fill-opacity:1.0; 
stroke:#000000; stroke-width:0; stroke-opacity:1; 
stroke-linecap:round; stroke-linejoin:round;">
<path style="fill:#000000; fill-opacity:1.0; 
stroke:#000000; stroke-width:0; stroke-opacity:1; 
stroke-linecap:round; stroke-linejoin:round;fill-rule:evenodd;"
d="M 26940.4,6022.25
26952.3,6024.01
26964,6026.94
26975.4,6031
26986.3,6036.16
26996.6,6042.36
27006.3,6049.54
27015.2,6057.63
27023.3,6066.56
27030.5,6076.25
27036.7,6086.58
27041.8,6097.48
27045.9,6108.83
27048.8,6120.52
27050.6,6132.45
27051.2,6144.49
27051.2,6489.37
27050.6,6501.41
27048.8,6513.33
27045.9,6525.03
27041.8,6536.38
27036.7,6547.27
27030.5,6557.61
27023.3,6567.3
27015.2,6576.23
27006.3,6584.32
26996.6,6591.5
26986.3,6597.7
26975.4,6602.85
26964,6606.92
26952.3,6609.84
26940.4,6611.61
26928.3,6612.21
25992.9,6612.21
25980.9,6611.61
25969,6609.84
25957.3,6606.92
25945.9,6602.85
25935,6597.7
25924.7,6591.5
25915,6584.32
25906.1,6576.23
25898,6567.3
25890.8,6557.61
25884.6,6547.27
25879.4,6536.38
25875.4,6525.03
25872.4,6513.33
25870.7,6501.41
25870.1,6489.37
25870.1,6144.49
25870.7,6132.45
25872.4,6120.52
25875.4,6108.83
25879.4,6097.48
25884.6,6086.58
25890.8,6076.25
25898,6066.56
25906.1,6057.63
25915,6049.54
25924.7,6042.36
25935,6036.16
25945.9,6031
25957.3,6026.94
25969,6024.01
25980.9,6022.25
25992.9,6021.65
26928.3,6021.65
Z" /> 
</g>
<g style="fill:#000000; fill-opacity:1.0; 
stroke:#000000; stroke-width:590.551; stroke-opacity:1; 
stroke-linecap:round; stroke-linejoin:round;">
</g>
<g style="fill:#000000; fill-opacity:0.0; 
stroke:#000000; stroke-width:590.551; stroke-opacity:1; 
stroke-linecap:round; stroke-linejoin:round;">
<path d="M26165 5529
L26755 5529
" />
</g>
<g >
</g>
<g style="fill:#000000; fill-opacity:0.0; 
stroke:#000000; stroke-width:590.551; stroke-opacity:1; 
stroke-linecap:round; stroke-linejoin:round;">
</g>
<g style="fill:#000000; fill-opacity:1.0; 
stroke:#000000; stroke-width:0; stroke-opacity:1; 
stroke-linecap:round; stroke-linejoin:round;">
<circle cx="4960.63" cy="5329.53" r="314.961" /> 
</g>
<g style="fill:#000000; fill-opacity:1.0; 
stroke:#000000; stroke-width:39.3701; stroke-opacity:1; 
stroke-linecap:round; stroke-linejoin:round;">
</g>
<g style="fill:#000000; fill-opacity:1.0; 
stroke:#000000; stroke-width:0; stroke-opacity:1; 
stroke-linecap:round; stroke-linejoin:round;">
<circle cx="18760.6" cy="9729.53" r="314.961" /> 
</g>
<g style="fill:#000000; fill-opacity:1.0; 
stroke:#000000; stroke-width:39.3701; stroke-opacity:1; 
stroke-linecap:round; stroke-linejoin:round;">
</g>
<g style="fill:#000000; fill-opacity:1.0; 
stroke:#000000; stroke-width:0; stroke-opacity:1; 
stroke-linecap:round; stroke-linejoin:round;">
<circle cx="8560.63" cy="10329.5" r="314.961" /> 
</g>
<g style="fill:#000000; fill-opacity:1.0; 
stroke:#000000; stroke-width:39.3701; stroke-opacity:1; 
stroke-linecap:round; stroke-linejoin:round;">
</g>
<g style="fill:#000000; fill-opacity:1.0; 
stroke:#000000; stroke-width:0; stroke-opacity:1; 
stroke-linecap:round; stroke-linejoin:round;">
<circle cx="18560.6" cy="12129.5" r="314.961" /> 
</g>
<g style="fill:#000000; fill-opacity:1.0; 
stroke:#000000; stroke-width:39.3701; stroke-opacity:1; 
stroke-linecap:round; stroke-linejoin:round;">
</g>
<g style="fill:#000000; fill-opacity:1.0; 
stroke:#000000; stroke-width:0; stroke-opacity:1; 
stroke-linecap:round; stroke-linejoin:round;">
<circle cx="23160.6" cy="15929.5" r="314.961" /> 
</g>
<g style="fill:#000000; fill-opacity:1.0; 
stroke:#000000; stroke-width:39.3701; stroke-opacity:1; 
stroke-linecap:round; stroke-linejoin:round;">
</g>
<g style="fill:#000000; fill-opacity:1.0; 
stroke:#000000; stroke-width:0; stroke-opacity:1; 
stroke-linecap:round; stroke-linejoin:round;">
<circle cx="9710.63" cy="7029.53" r="314.961" /> 
</g>
<g style="fill:#000000; fill-opacity:1.0; 
stroke:#000000; stroke-width:39.3701; stroke-opacity:1; 
stroke-linecap:round; stroke-linejoin:round;">
</g>
<g style="fill:#000000; fill-opacity:1.0; 
stroke:#000000; stroke-width:0; stroke-opacity:1; 
stroke-linecap:round; stroke-linejoin:round;">
<circle cx="25460.6" cy="14029.5" r="314.961" /> 
</g>
<g style="fill:#000000; fill-opacity:1.0; 
stroke:#000000; stroke-width:39.3701; stroke-opacity:1; 
stroke-linecap:round; stroke-linejoin:round;">
</g>
<g style="fill:#000000; fill-opacity:1.0; 
stroke:#000000; stroke-width:0; stroke-opacity:1; 
stroke-linecap:round; stroke-linejoin:round;">
<circle cx="6560.63" cy="15529.5" r="314.961" /> 
</g>
<g style="fill:#000000; fill-opacity:1.0; 
stroke:#000000; stroke-width:39.3701; stroke-opacity:1; 
stroke-linecap:round; stroke-linejoin:round;">
</g>
<g >
</g>
<g style="fill:#000000; fill-opacity:1.0; 
stroke:#000000; stroke-width:39.3701; stroke-opacity:1; 
stroke-linecap:round; stroke-linejoin:round;">
</g>
<g style="fill:#000000; fill-opacity:1.0; 
stroke:#000000; stroke-width:236.22; stroke-opacity:1; 
stroke-linecap:round; stroke-linejoin:round;">
</g>
<g style="fill:#000000; fill-opacity:0.0; 
stroke:#000000; stroke-width:236.22; stroke-opacity:1; 
stroke-linecap:round; stroke-linejoin:round;">
<path d="M24427 21529
L25157 21529
" />
<path d="M22210 19312
L24427 21529
" />
<path d="M22210 17127
L22210 19312
" />
<path d="M18039 29072
L18314 29348
" />
<path d="M15763 29072
L18039 29072
" />
<path d="M18314 29348
L19496 30529
" />
<path d="M14210 27519
L15763 29072
" />
<path d="M14210 26029
L14210 27519
" />
<path d="M21501 29779
L22251 30529
" />
<path d="M20901 29779
L21501 29779
" />
<path d="M19801 28679
L20901 29779
" />
<path d="M15710 28029
L16360 28679
" />
<path d="M16360 28679
L19801 28679
" />
<path d="M15210 27332
L15643 27332
" />
<path d="M15643 27332
L15710 27399
" />
<path d="M15710 27399
L15710 28029
" />
<path d="M12210 28755
L13984 30529
" />
<path d="M12210 26029
L12210 28755
" />
<path d="M16110 30529
L16740 30529
" />
<path d="M13210 27629
L16110 30529
" />
<path d="M13210 27332
L13210 27629
" />
<path d="M14816 5032
L14816 17307
" />
<path d="M13984 2529
L13984 4199
" />
<path d="M13984 4199
L14816 5032
" />
<path d="M14816 17307
L15210 17700
" />
<path d="M15210 17700
L15210 18431
" />
<path d="M11460 2529
L11228 2529
" />
<path d="M13960 5029
L11460 2529
" />
<path d="M13960 16877
L13960 5029
" />
<path d="M14210 17127
L13960 16877
" />
</g>
<g style="fill:#000000; fill-opacity:0.0; 
stroke:#000000; stroke-width:314.961; stroke-opacity:1; 
stroke-linecap:round; stroke-linejoin:round;">
<path d="M27299 27517
L26787 28029
" />
<path d="M27299 23879
L27299 27517
" />
<path d="M26787 28029
L26610 28029
" />
<path d="M26460 23041
L27299 23879
" />
<path d="M26460 22529
L26460 23041
" />
<path d="M27124 27692
L26787 28029
" />
<path d="M25948 26517
L27124 27692
" />
<path d="M24537 26517
L25948 26517
" />
<path d="M23722 27332
L24537 26517
" />
<path d="M23210 27332
L23722 27332
" />
<path d="M25960 11029
L27460 9529
" />
<path d="M18809 11029
L24460 11029
" />
<path d="M25651 22529
L26460 22529
" />
<path d="M20367 22529
L25651 22529
" />
<path d="M10210 17127
L10210 16830
" />
<path d="M3228 13529
L6710 13529
" />
<path d="M2960 13797
L3228 13529
" />
<path d="M10210 16318
L7421 13529
" />
<path d="M7421 13529
L6710 13529
" />
<path d="M10210 17127
L10210 16318
" />
<path d="M14051 22529
L20367 22529
" />
<path d="M10210 18688
L14051 22529
" />
<path d="M10210 17127
L10210 18688
" />
<path d="M17210 22529
L20367 22529
" />
<path d="M17210 27332
L17210 22529
" />
<path d="M23692 14029
L27460 17797
" />
<path d="M21809 14029
L23692 14029
" />
<path d="M25460 12261
L25460 11029
" />
<path d="M23692 14029
L25460 12261
" />
<path d="M25460 11029
L25960 11029
" />
<path d="M24460 11029
L25460 11029
" />
<path d="M2960 5529
L4760 5529
" />
<path d="M18809 9777
L18760 9729
" />
<path d="M18809 11029
L18809 9777
" />
<path d="M8510 10379
L8560 10329
" />
<path d="M6710 10379
L8510 10379
" />
<path d="M6710 13529
L6710 10379
" />
<path d="M6710 10379
L6710 8279
" />
<path d="M26460 20017
L26460 20529
" />
<path d="M24874 18431
L26460 20017
" />
<path d="M23210 18431
L24874 18431
" />
<path d="M20112 12029
L21809 12029
" />
<path d="M25488 27029
L25311 27029
" />
<path d="M25984 28541
L25710 28267
" />
<path d="M27236 28541
L25984 28541
" />
<path d="M25710 28267
L25710 27251
" />
<path d="M27771 28005
L27236 28541
" />
<path d="M25710 27251
L25488 27029
" />
<path d="M26460 20529
L27269 20529
" />
<path d="M27771 21031
L27771 28005
" />
<path d="M27269 20529
L27771 21031
" />
<path d="M18660 12029
L18560 12129
" />
<path d="M20112 12029
L18660 12029
" />
<path d="M23160 18381
L23210 18431
" />
<path d="M23160 15929
L23160 18381
" />
</g>
<g style="fill:#000000; fill-opacity:0.0; 
stroke:#000000; stroke-width:236.22; stroke-opacity:1; 
stroke-linecap:round; stroke-linejoin:round;">
<path d="M6897 3710
L5716 2529
" />
<path d="M7173 3986
L6897 3710
" />
<path d="M12210 6529
L9667 3986
" />
<path d="M9667 3986
L7173 3986
" />
<path d="M12210 17127
L12210 6529
" />
<path d="M8210 28035
L5716 30529
" />
<path d="M8210 26029
L8210 28035
" />
<path d="M8989 2529
L8472 2529
" />
<path d="M13210 6751
L8989 2529
" />
<path d="M13210 18431
L13210 6751
" />
<path d="M2960 28859
L2960 30529
" />
<path d="M2960 24248
L2960 28859
" />
<path d="M8777 18431
L2960 24248
" />
<path d="M9210 18431
L8777 18431
" />
<path d="M21643 27332
L21210 27332
" />
<path d="M22023 27332
L21643 27332
" />
<path d="M23326 26029
L22023 27332
" />
<path d="M26610 26029
L23326 26029
" />
<path d="M16777 15798
L16029 15050
" />
<path d="M18314 3710
L19496 2529
" />
<path d="M17210 18133
L16777 17700
" />
<path d="M16777 17700
L16777 15798
" />
<path d="M17210 18431
L17210 18133
" />
<path d="M16029 15050
L16029 5996
" />
<path d="M16029 5996
L18314 3710
" />
<path d="M16210 17127
L16059 17127
" />
<path d="M15210 4059
L16740 2529
" />
<path d="M16210 17127
L15210 16127
" />
<path d="M15210 16127
L15210 4059
" />
</g>
<g style="fill:#000000; fill-opacity:0.0; 
stroke:#000000; stroke-width:314.961; stroke-opacity:1; 
stroke-linecap:round; stroke-linejoin:round;">
<path d="M27710 5529
L26460 5529
" />
<path d="M27710 7279
L27710 5529
" />
<path d="M26466 7279
L27710 7279
" />
<path d="M25466 8279
L26466 7279
" />
<path d="M19309 8279
L25466 8279
" />
</g>
<g style="fill:#000000; fill-opacity:0.0; 
stroke:#000000; stroke-width:236.22; stroke-opacity:1; 
stroke-linecap:round; stroke-linejoin:round;">
<path d="M26116 6316
L26460 6316
" />
<path d="M22379 6316
L26116 6316
" />
<path d="M21342 5279
L22379 6316
" />
<path d="M20612 5279
L21342 5279
" />
</g>
<g style="fill:#000000; fill-opacity:0.0; 
stroke:#000000; stroke-width:314.961; stroke-opacity:1; 
stroke-linecap:round; stroke-linejoin:round;">
<path d="M27460 12285
L27460 15041
" />
<path d="M2960 8285
L2960 11041
" />
<path d="M9710 6976
L8013 5279
" />
<path d="M9710 7029
L9710 6976
" />
<path d="M25716 14029
L25460 14029
" />
<path d="M27460 12285
L25716 14029
" />
<path d="M5210 16879
L6560 15529
" />
<path d="M5210 18431
L5210 16879
" />
<path d="M6410 5279
L8013 5279
" />
<path d="M4360 7329
L6410 5279
" />
<path d="M3916 7329
L4360 7329
" />
<path d="M2960 8285
L3916 7329
" />
</g>
<g style="fill:#000000; fill-opacity:0.0; 
stroke:#000000; stroke-width:236.22; stroke-opacity:1; 
stroke-linecap:round; stroke-linejoin:round;">
<path d="M18809 13029
L23112 13029
" />
<path d="M21210 17700
L21210 18431
" />
<path d="M21210 15561
L21210 17700
" />
<path d="M20112 14462
L21210 15561
" />
<path d="M20112 14029
L20112 14462
" />
<path d="M11210 18431
L11210 6629
" />
<path d="M4141 3710
L2960 2529
" />
<path d="M4811 4379
L4141 3710
" />
<path d="M8960 4379
L4811 4379
" />
<path d="M11210 6629
L8960 4379
" />
<path d="M26582 3710
L27763 2529
" />
<path d="M25486 4807
L26582 3710
" />
<path d="M17710 15061
L17710 6029
" />
<path d="M18933 4807
L25486 4807
" />
<path d="M17710 6029
L18933 4807
" />
<path d="M19777 17127
L17710 15061
" />
<path d="M20210 17127
L19777 17127
" />
<path d="M21070 3710
L22251 2529
" />
<path d="M20795 3986
L21070 3710
" />
<path d="M17173 15637
L16710 15174
" />
<path d="M18640 3986
L20795 3986
" />
<path d="M18326 18431
L17173 17277
" />
<path d="M16710 5915
L18640 3986
" />
<path d="M19210 18431
L18326 18431
" />
<path d="M16710 15174
L16710 5915
" />
<path d="M17173 17277
L17173 15637
" />
<path d="M23826 3710
L25007 2529
" />
<path d="M23157 4379
L23826 3710
" />
<path d="M18210 17127
L18210 16117
" />
<path d="M17210 15117
L17210 5972
" />
<path d="M18210 16117
L17210 15117
" />
<path d="M18803 4379
L23157 4379
" />
<path d="M17210 5972
L18803 4379
" />
<path d="M18480 25029
L18210 25299
" />
<path d="M18210 25299
L18210 26029
" />
<path d="M25311 25029
L18480 25029
" />
<path d="M11210 30511
L11228 30529
" />
<path d="M11210 27332
L11210 30511
" />
<path d="M9210 29791
L8472 30529
" />
<path d="M9210 27332
L9210 29791
" />
<path d="M27359 30529
L27763 30529
" />
<path d="M24932 28102
L27359 30529
" />
<path d="M20793 28102
L24932 28102
" />
<path d="M22210 26029
L21326 26029
" />
<path d="M20738 28047
L20793 28102
" />
<path d="M20738 26618
L20738 28047
" />
<path d="M21326 26029
L20738 26618
" />
<path d="M23826 29348
L25007 30529
" />
<path d="M23257 28779
L23826 29348
" />
<path d="M20710 28779
L23257 28779
" />
<path d="M20210 28279
L20710 28779
" />
<path d="M16210 27519
L16970 28279
" />
<path d="M16970 28279
L20210 28279
" />
<path d="M16210 26029
L16210 27519
" />
</g>
<g >
</g>
</g>
<g style="fill:#FFFFFF; fill-opacity:0.0; 
stroke:#FFFFFF; stroke-width:236.22; stroke-opacity:1; 
stroke-linecap:round; stroke-linejoin:round;">
</g>
<g style="fill:#FFFFFF; fill-opacity:1.0; 
stroke:#FFFFFF; stroke-width:0; stroke-opacity:1; 
stroke-linecap:round; stroke-linejoin:round;">
<circle cx="4960.63" cy="5329.53" r="157.48" /> 
</g>
<g style="fill:#FFFFFF; fill-opacity:1.0; 
stroke:#FFFFFF; stroke-width:39.3701; stroke-opacity:1; 
stroke-linecap:round; stroke-linejoin:round;">
</g>
<g style="fill:#FFFFFF; fill-opacity:1.0; 
stroke:#FFFFFF; stroke-width:0; stroke-opacity:1; 
stroke-linecap:round; stroke-linejoin:round;">
<circle cx="18760.6" cy="9729.53" r="157.48" /> 
</g>
<g style="fill:#FFFFFF; fill-opacity:1.0; 
stroke:#FFFFFF; stroke-width:39.3701; stroke-opacity:1; 
stroke-linecap:round; stroke-linejoin:round;">
</g>
<g style="fill:#FFFFFF; fill-opacity:1.0; 
stroke:#FFFFFF; stroke-width:0; stroke-opacity:1; 
stroke-linecap:round; stroke-linejoin:round;">
<circle cx="8560.63" cy="10329.5" r="157.48" /> 
</g>
<g style="fill:#FFFFFF; fill-opacity:1.0; 
stroke:#FFFFFF; stroke-width:39.3701; stroke-opacity:1; 
stroke-linecap:round; stroke-linejoin:round;">
</g>
<g style="fill:#FFFFFF; fill-opacity:1.0; 
stroke:#FFFFFF; stroke-width:0; stroke-opacity:1; 
stroke-linecap:round; stroke-linejoin:round;">
<circle cx="18560.6" cy="12129.5" r="157.48" /> 
</g>
<g style="fill:#FFFFFF; fill-opacity:1.0; 
stroke:#FFFFFF; stroke-width:39.3701; stroke-opacity:1; 
stroke-linecap:round; stroke-linejoin:round;">
</g>
<g style="fill:#FFFFFF; fill-opacity:1.0; 
stroke:#FFFFFF; stroke-width:0; stroke-opacity:1; 
stroke-linecap:round; stroke-linejoin:round;">
<circle cx="23160.6" cy="15929.5" r="157.48" /> 
</g>
<g style="fill:#FFFFFF; fill-opacity:1.0; 
stroke:#FFFFFF; stroke-width:39.3701; stroke-opacity:1; 
stroke-linecap:round; stroke-linejoin:round;">
</g>
<g style="fill:#FFFFFF; fill-opacity:1.0; 
stroke:#FFFFFF; stroke-width:0; stroke-opacity:1; 
stroke-linecap:round; stroke-linejoin:round;">
<circle cx="9710.63" cy="7029.53" r="157.48" /> 
</g>
<g style="fill:#FFFFFF; fill-opacity:1.0; 
stroke:#FFFFFF; stroke-width:39.3701; stroke-opacity:1; 
stroke-linecap:round; stroke-linejoin:round;">
</g>
<g style="fill:#FFFFFF; fill-opacity:1.0; 
stroke:#FFFFFF; stroke-width:0; stroke-opacity:1; 
stroke-linecap:round; stroke-linejoin:round;">
<circle cx="25460.6" cy="14029.5" r="157.48" /> 
</g>
<g style="fill:#FFFFFF; fill-opacity:1.0; 
stroke:#FFFFFF; stroke-width:39.3701; stroke-opacity:1; 
stroke-linecap:round; stroke-linejoin:round;">
</g>
<g style="fill:#FFFFFF; fill-opacity:1.0; 
stroke:#FFFFFF; stroke-width:0; stroke-opacity:1; 
stroke-linecap:round; stroke-linejoin:round;">
<circle cx="6560.63" cy="15529.5" r="157.48" /> 
</g>
<g style="fill:#FFFFFF; fill-opacity:1.0; 
stroke:#FFFFFF; stroke-width:39.3701; stroke-opacity:1; 
stroke-linecap:round; stroke-linejoin:round;">
</g>
<g style="fill:#FFFFFF; fill-opacity:1.0; 
stroke:#FFFFFF; stroke-width:0; stroke-opacity:1; 
stroke-linecap:round; stroke-linejoin:round;">
<circle cx="22252" cy="2529.53" r="590.551" /> 
</g>
<g style="fill:#FFFFFF; fill-opacity:1.0; 
stroke:#FFFFFF; stroke-width:39.3701; stroke-opacity:1; 
stroke-linecap:round; stroke-linejoin:round;">
</g>
<g style="fill:#FFFFFF; fill-opacity:1.0; 
stroke:#FFFFFF; stroke-width:0; stroke-opacity:1; 
stroke-linecap:round; stroke-linejoin:round;">
<circle cx="25007.9" cy="2529.53" r="590.551" /> 
</g>
<g style="fill:#FFFFFF; fill-opacity:1.0; 
stroke:#FFFFFF; stroke-width:39.3701; stroke-opacity:1; 
stroke-linecap:round; stroke-linejoin:round;">
</g>
<g style="fill:#FFFFFF; fill-opacity:1.0; 
stroke:#FFFFFF; stroke-width:0; stroke-opacity:1; 
stroke-linecap:round; stroke-linejoin:round;">
<circle cx="27763.8" cy="2529.53" r="590.551" /> 
</g>
<g style="fill:#FFFFFF; fill-opacity:1.0; 
stroke:#FFFFFF; stroke-width:39.3701; stroke-opacity:1; 
stroke-linecap:round; stroke-linejoin:round;">
</g>
<g style="fill:#FFFFFF; fill-opacity:1.0; 
stroke:#FFFFFF; stroke-width:0; stroke-opacity:1; 
stroke-linecap:round; stroke-linejoin:round;">
<circle cx="19496.1" cy="2529.53" r="590.551" /> 
</g>
<g style="fill:#FFFFFF; fill-opacity:1.0; 
stroke:#FFFFFF; stroke-width:39.3701; stroke-opacity:1; 
stroke-linecap:round; stroke-linejoin:round;">
</g>
<g style="fill:#FFFFFF; fill-opacity:1.0; 
stroke:#FFFFFF; stroke-width:0; stroke-opacity:1; 
stroke-linecap:round; stroke-linejoin:round;">
<circle cx="16740.2" cy="2529.53" r="590.551" /> 
</g>
<g style="fill:#FFFFFF; fill-opacity:1.0; 
stroke:#FFFFFF; stroke-width:39.3701; stroke-opacity:1; 
stroke-linecap:round; stroke-linejoin:round;">
</g>
<g style="fill:#FFFFFF; fill-opacity:1.0; 
stroke:#FFFFFF; stroke-width:0; stroke-opacity:1; 
stroke-linecap:round; stroke-linejoin:round;">
<circle cx="13984.3" cy="2529.53" r="590.551" /> 
</g>
<g style="fill:#FFFFFF; fill-opacity:1.0; 
stroke:#FFFFFF; stroke-width:39.3701; stroke-opacity:1; 
stroke-linecap:round; stroke-linejoin:round;">
</g>
<g style="fill:#FFFFFF; fill-opacity:1.0; 
stroke:#FFFFFF; stroke-width:0; stroke-opacity:1; 
stroke-linecap:round; stroke-linejoin:round;">
<circle cx="11228.3" cy="2529.53" r="590.551" /> 
</g>
<g style="fill:#FFFFFF; fill-opacity:1.0; 
stroke:#FFFFFF; stroke-width:39.3701; stroke-opacity:1; 
stroke-linecap:round; stroke-linejoin:round;">
</g>
<g style="fill:#FFFFFF; fill-opacity:1.0; 
stroke:#FFFFFF; stroke-width:0; stroke-opacity:1; 
stroke-linecap:round; stroke-linejoin:round;">
<circle cx="8472.44" cy="2529.53" r="590.551" /> 
</g>
<g style="fill:#FFFFFF; fill-opacity:1.0; 
stroke:#FFFFFF; stroke-width:39.3701; stroke-opacity:1; 
stroke-linecap:round; stroke-linejoin:round;">
</g>
<g style="fill:#FFFFFF; fill-opacity:1.0; 
stroke:#FFFFFF; stroke-width:0; stroke-opacity:1; 
stroke-linecap:round; stroke-linejoin:round;">
<circle cx="5716.54" cy="2529.53" r="590.551" /> 
</g>
<g style="fill:#FFFFFF; fill-opacity:1.0; 
stroke:#FFFFFF; stroke-width:39.3701; stroke-opacity:1; 
stroke-linecap:round; stroke-linejoin:round;">
</g>
<g style="fill:#FFFFFF; fill-opacity:1.0; 
stroke:#FFFFFF; stroke-width:0; stroke-opacity:1; 
stroke-linecap:round; stroke-linejoin:round;">
<circle cx="2960.63" cy="2529.53" r="590.551" /> 
</g>
<g style="fill:#FFFFFF; fill-opacity:1.0; 
stroke:#FFFFFF; stroke-width:39.3701; stroke-opacity:1; 
stroke-linecap:round; stroke-linejoin:round;">
</g>
<g style="fill:#FFFFFF; fill-opacity:1.0; 
stroke:#FFFFFF; stroke-width:0; stroke-opacity:1; 
stroke-linecap:round; stroke-linejoin:round;">
<circle cx="22252" cy="30529.5" r="590.551" /> 
</g>
<g style="fill:#FFFFFF; fill-opacity:1.0; 
stroke:#FFFFFF; stroke-width:39.3701; stroke-opacity:1; 
stroke-linecap:round; stroke-linejoin:round;">
</g>
<g style="fill:#FFFFFF; fill-opacity:1.0; 
stroke:#FFFFFF; stroke-width:0; stroke-opacity:1; 
stroke-linecap:round; stroke-linejoin:round;">
<circle cx="25007.9" cy="30529.5" r="590.551" /> 
</g>
<g style="fill:#FFFFFF; fill-opacity:1.0; 
stroke:#FFFFFF; stroke-width:39.3701; stroke-opacity:1; 
stroke-linecap:round; stroke-linejoin:round;">
</g>
<g style="fill:#FFFFFF; fill-opacity:1.0; 
stroke:#FFFFFF; stroke-width:0; stroke-opacity:1; 
stroke-linecap:round; stroke-linejoin:round;">
<circle cx="27763.8" cy="30529.5" r="590.551" /> 
</g>
<g style="fill:#FFFFFF; fill-opacity:1.0; 
stroke:#FFFFFF; stroke-width:39.3701; stroke-opacity:1; 
stroke-linecap:round; stroke-linejoin:round;">
</g>
<g style="fill:#FFFFFF; fill-opacity:1.0; 
stroke:#FFFFFF; stroke-width:0; stroke-opacity:1; 
stroke-linecap:round; stroke-linejoin:round;">
<circle cx="19496.1" cy="30529.5" r="590.551" /> 
</g>
<g style="fill:#FFFFFF; fill-opacity:1.0; 
stroke:#FFFFFF; stroke-width:39.3701; stroke-opacity:1; 
stroke-linecap:round; stroke-linejoin:round;">
</g>
<g style="fill:#FFFFFF; fill-opacity:1.0; 
stroke:#FFFFFF; stroke-width:0; stroke-opacity:1; 
stroke-linecap:round; stroke-linejoin:round;">
<circle cx="16740.2" cy="30529.5" r="590.551" /> 
</g>
<g style="fill:#FFFFFF; fill-opacity:1.0; 
stroke:#FFFFFF; stroke-width:39.3701; stroke-opacity:1; 
stroke-linecap:round; stroke-linejoin:round;">
</g>
<g style="fill:#FFFFFF; fill-opacity:1.0; 
stroke:#FFFFFF; stroke-width:0; stroke-opacity:1; 
stroke-linecap:round; stroke-linejoin:round;">
<circle cx="13984.3" cy="30529.5" r="590.551" /> 
</g>
<g style="fill:#FFFFFF; fill-opacity:1.0; 
stroke:#FFFFFF; stroke-width:39.3701; stroke-opacity:1; 
stroke-linecap:round; stroke-linejoin:round;">
</g>
<g style="fill:#FFFFFF; fill-opacity:1.0; 
stroke:#FFFFFF; stroke-width:0; stroke-opacity:1; 
stroke-linecap:round; stroke-linejoin:round;">
<circle cx="11228.3" cy="30529.5" r="590.551" /> 
</g>
<g style="fill:#FFFFFF; fill-opacity:1.0; 
stroke:#FFFFFF; stroke-width:39.3701; stroke-opacity:1; 
stroke-linecap:round; stroke-linejoin:round;">
</g>
<g style="fill:#FFFFFF; fill-opacity:1.0; 
stroke:#FFFFFF; stroke-width:0; stroke-opacity:1; 
stroke-linecap:round; stroke-linejoin:round;">
<circle cx="8472.44" cy="30529.5" r="590.551" /> 
</g>
<g style="fill:#FFFFFF; fill-opacity:1.0; 
stroke:#FFFFFF; stroke-width:39.3701; stroke-opacity:1; 
stroke-linecap:round; stroke-linejoin:round;">
</g>
<g style="fill:#FFFFFF; fill-opacity:1.0; 
stroke:#FFFFFF; stroke-width:0; stroke-opacity:1; 
stroke-linecap:round; stroke-linejoin:round;">
<circle cx="5716.54" cy="30529.5" r="590.551" /> 
</g>
<g style="fill:#FFFFFF; fill-opacity:1.0; 
stroke:#FFFFFF; stroke-width:39.3701; stroke-opacity:1; 
stroke-linecap:round; stroke-linejoin:round;">
</g>
<g style="fill:#FFFFFF; fill-opacity:1.0; 
stroke:#FFFFFF; stroke-width:0; stroke-opacity:1; 
stroke-linecap:round; stroke-linejoin:round;">
<circle cx="2960.63" cy="30529.5" r="590.551" /> 
</g>
<g style="fill:#FFFFFF; fill-opacity:1.0; 
stroke:#FFFFFF; stroke-width:39.3701; stroke-opacity:1; 
stroke-linecap:round; stroke-linejoin:round;">
</g>
<g style="fill:#FFFFFF; fill-opacity:1.0; 
stroke:#FFFFFF; stroke-width:0; stroke-opacity:1; 
stroke-linecap:round; stroke-linejoin:round;">
<circle cx="2960.63" cy="13797.2" r="590.551" /> 
</g>
<g style="fill:#FFFFFF; fill-opacity:1.0; 
stroke:#FFFFFF; stroke-width:39.3701; stroke-opacity:1; 
stroke-linecap:round; stroke-linejoin:round;">
</g>
<g style="fill:#FFFFFF; fill-opacity:1.0; 
stroke:#FFFFFF; stroke-width:0; stroke-opacity:1; 
stroke-linecap:round; stroke-linejoin:round;">
<circle cx="2960.63" cy="11041.3" r="590.551" /> 
</g>
<g style="fill:#FFFFFF; fill-opacity:1.0; 
stroke:#FFFFFF; stroke-width:39.3701; stroke-opacity:1; 
stroke-linecap:round; stroke-linejoin:round;">
</g>
<g style="fill:#FFFFFF; fill-opacity:1.0; 
stroke:#FFFFFF; stroke-width:0; stroke-opacity:1; 
stroke-linecap:round; stroke-linejoin:round;">
<circle cx="2960.63" cy="8285.43" r="590.551" /> 
</g>
<g style="fill:#FFFFFF; fill-opacity:1.0; 
stroke:#FFFFFF; stroke-width:39.3701; stroke-opacity:1; 
stroke-linecap:round; stroke-linejoin:round;">
</g>
<g style="fill:#FFFFFF; fill-opacity:1.0; 
stroke:#FFFFFF; stroke-width:0; stroke-opacity:1; 
stroke-linecap:round; stroke-linejoin:round;">
<circle cx="2960.63" cy="5529.53" r="590.551" /> 
</g>
<g style="fill:#FFFFFF; fill-opacity:1.0; 
stroke:#FFFFFF; stroke-width:39.3701; stroke-opacity:1; 
stroke-linecap:round; stroke-linejoin:round;">
</g>
<g style="fill:#FFFFFF; fill-opacity:1.0; 
stroke:#FFFFFF; stroke-width:0; stroke-opacity:1; 
stroke-linecap:round; stroke-linejoin:round;">
<circle cx="27460.6" cy="17797.2" r="590.551" /> 
</g>
<g style="fill:#FFFFFF; fill-opacity:1.0; 
stroke:#FFFFFF; stroke-width:39.3701; stroke-opacity:1; 
stroke-linecap:round; stroke-linejoin:round;">
</g>
<g style="fill:#FFFFFF; fill-opacity:1.0; 
stroke:#FFFFFF; stroke-width:0; stroke-opacity:1; 
stroke-linecap:round; stroke-linejoin:round;">
<circle cx="27460.6" cy="15041.3" r="590.551" /> 
</g>
<g style="fill:#FFFFFF; fill-opacity:1.0; 
stroke:#FFFFFF; stroke-width:39.3701; stroke-opacity:1; 
stroke-linecap:round; stroke-linejoin:round;">
</g>
<g style="fill:#FFFFFF; fill-opacity:1.0; 
stroke:#FFFFFF; stroke-width:0; stroke-opacity:1; 
stroke-linecap:round; stroke-linejoin:round;">
<circle cx="27460.6" cy="12285.4" r="590.551" /> 
</g>
<g style="fill:#FFFFFF; fill-opacity:1.0; 
stroke:#FFFFFF; stroke-width:39.3701; stroke-opacity:1; 
stroke-linecap:round; stroke-linejoin:round;">
</g>
<g style="fill:#FFFFFF; fill-opacity:1.0; 
stroke:#FFFFFF; stroke-width:0; stroke-opacity:1; 
stroke-linecap:round; stroke-linejoin:round;">
<circle cx="27460.6" cy="9529.53" r="590.551" /> 
</g>
<g style="fill:#FFFFFF; fill-opacity:1.0; 
stroke:#FFFFFF; stroke-width:39.3701; stroke-opacity:1; 
stroke-linecap:round; stroke-linejoin:round;">
</g>
<g style="fill:#FFFFFF; fill-opacity:1.0; 
stroke:#FFFFFF; stroke-width:0; stroke-opacity:1; 
stroke-linecap:round; stroke-linejoin:round;">
<circle cx="26460.6" cy="6316.93" r="295.275" /> 
</g>
<g style="fill:#FFFFFF; fill-opacity:1.0; 
stroke:#FFFFFF; stroke-width:39.3701; stroke-opacity:1; 
stroke-linecap:round; stroke-linejoin:round;">
</g>
<g style="fill:#FFFFFF; fill-opacity:1.0; 
stroke:#FFFFFF; stroke-width:0; stroke-opacity:1; 
stroke-linecap:round; stroke-linejoin:round;">
<circle cx="26460.6" cy="5529.53" r="295.275" /> 
</g>
<g style="fill:#FFFFFF; fill-opacity:1.0; 
stroke:#FFFFFF; stroke-width:39.3701; stroke-opacity:1; 
stroke-linecap:round; stroke-linejoin:round;">
</g>
<g style="fill:#000000; fill-opacity:1.0; 
stroke:#000000; stroke-width:39.3701; stroke-opacity:1; 
stroke-linecap:round; stroke-linejoin:round;">
</g> 
</svg>
